<svg xmlns="http://www.w3.org/2000/svg" viewBox="-0.5 -0.5 24 24" id="Whatsapp--Streamline-Font-Awesome" height="24" width="24" fill="#75221B"><desc>Whatsapp Streamline Icon: https://streamlinehq.com</desc><!--! Font Awesome Free 6.5.2 by @fontawesome - https://fontawesome.com License - https://fontawesome.com/license/free (Icons: CC BY 4.0, Fonts: SIL OFL 1.1, Code: MIT License) Copyright 2024 Fonticons, Inc.--><path d="M19.394031249999998 3.50534375C17.2859375 1.3922187499999998 14.4785 0.23 11.494968749999998 0.23c-6.15825 0 -11.169375 5.011125 -11.169375 11.169375 0 1.9672187499999998 0.5131875 3.88915625 1.48925 5.5846875L0.23 22.77l5.9217812499999996 -1.5546562499999999c1.6301249999999998 0.89053125 3.46653125 1.3584375 5.33815625 1.3584375h0.00503125c6.15321875 0 11.27503125 -5.011125 11.27503125 -11.169375 0 -2.9835312499999995 -1.267875 -5.7859375 -3.3759687499999997 -7.8990625Zm-7.8990625 17.186749999999996c-1.670375 0 -3.3055312499999996 -0.44778124999999996 -4.729375 -1.2930312499999999l-0.33709374999999997 -0.20124999999999998 -3.5118124999999996 0.92071875 0.9358125 -3.4262812499999997 -0.22137500000000002 -0.3521875c-0.9307812499999999 -1.4791875 -1.4188124999999998 -3.18478125 -1.4188124999999998 -4.9406875 0 -5.11678125 4.165875 -9.28265625 9.287687499999999 -9.28265625 2.4804062499999997 0 4.809875 0.9659999999999999 6.56075 2.72190625s2.8275625 4.085374999999999 2.82253125 6.56578125c0 5.1218125 -4.27153125 9.287687499999999 -9.3883125 9.287687499999999Zm5.091625 -6.9531875c-0.27671874999999996 -0.140875 -1.6502499999999998 -0.8150624999999999 -1.9068437500000002 -0.905625 -0.25659375 -0.09559375 -0.44275000000000003 -0.140875 -0.62890625 0.140875 -0.18615625 0.28175 -0.71946875 0.905625 -0.8855000000000001 1.0968125 -0.161 0.18615625 -0.32703125 0.2113125 -0.60375 0.0704375 -1.6401875 -0.82009375 -2.716875 -1.46409375 -3.7985937499999998 -3.320625 -0.28678125 -0.49306249999999996 0.28678125 -0.45784374999999994 0.82009375 -1.5244687499999998 0.09056249999999999 -0.18615625 0.045281249999999995 -0.34715624999999994 -0.025156249999999998 -0.48803124999999997 -0.0704375 -0.140875 -0.62890625 -1.51440625 -0.86034375 -2.072875 -0.22640625 -0.5433749999999999 -0.45784374999999994 -0.46790625 -0.62890625 -0.47796875 -0.161 -0.0100625 -0.34715624999999994 -0.0100625 -0.5333125 -0.0100625 -0.18615625 0 -0.48803124999999997 0.0704375 -0.744625 0.34715624999999994 -0.25659375 0.28175 -0.9760624999999999 0.9559375 -0.9760624999999999 2.32946875s1.0012187499999998 2.70178125 1.1370624999999999 2.8879375c0.140875 0.18615625 1.9672187499999998 3.0036562499999997 4.769625 4.216187499999999 1.7710000000000001 0.76475 2.4653125 0.83015625 3.3508125 0.6993437499999999 0.53834375 -0.0805 1.6502499999999998 -0.6741874999999999 1.8816875 -1.32825 0.2314375 -0.6540625 0.2314375 -1.2125312499999998 0.161 -1.32825 -0.06540625 -0.12578125 -0.2515625 -0.19621875 -0.5282812499999999 -0.3320625Z" stroke-width="1"></path></svg>